<svg width="150" height="150" viewBox="0 0 150 150" fill="none" xmlns="http://www.w3.org/2000/svg">
<path d="M51.9961 141.984L48.2202 140.79L52.3863 127.425L56.1621 128.618L51.9961 141.984ZM61.3111 130.245L65.087 131.439L60.9209 144.805L57.145 143.611L61.3111 130.245ZM54.2704 133.746L59.9533 135.542L58.9773 138.674L53.2944 136.878L54.2704 133.746Z" fill="white"/>
<path d="M42.5815 121.477L35.9811 130.101L39.3781 132.738L37.4697 135.231L27.5631 127.543L29.4715 125.049L32.8527 127.673L39.4531 119.049L42.5815 121.477Z" fill="white"/>
<path d="M31.3701 111.808L19.3502 118.986L17.6959 116.176L22.9263 106.298L23.7991 107.78L12.7636 107.801L11.1093 104.992L23.109 97.7794L24.9561 100.916L17.7129 105.288L17.3983 104.754L25.6183 104.76L26.5114 106.277L22.6351 113.646L22.2494 112.991L29.5129 108.654L31.3701 111.808Z" fill="white"/>
<path d="M20.6075 89.4677L6.78067 91.6626L6.16822 87.7502L16.8939 86.0476L15.8608 79.448L18.962 78.9557L20.6075 89.4677Z" fill="white"/>
<path d="M23.4405 54.5182C23.0402 55.5499 22.5077 56.4437 21.8427 57.1994C21.1702 57.9378 20.4046 58.5106 19.5458 58.9179C18.6919 59.3127 17.7856 59.5294 16.8268 59.5678C15.8557 59.6013 14.8738 59.4228 13.8811 59.0324C12.8885 58.642 12.0526 58.1054 11.3735 57.4228C10.682 56.7354 10.1552 55.9551 9.7931 55.0819C9.43583 54.1964 9.26465 53.2551 9.27956 52.258C9.28688 51.2437 9.49064 50.2206 9.89085 49.1888C10.3585 47.983 10.9866 46.9907 11.7749 46.2119C12.568 45.4206 13.4846 44.8642 14.5246 44.5425L15.7351 47.7265C15.0749 47.954 14.5156 48.2713 14.0573 48.6785C13.6039 49.0732 13.2566 49.5814 13.0156 50.2029C12.8082 50.7375 12.7046 51.2626 12.7048 51.7785C12.7049 52.2943 12.8098 52.7797 13.0194 53.2347C13.2215 53.6724 13.5159 54.0747 13.9027 54.4418C14.2943 54.7964 14.7693 55.0835 15.3276 55.3031C15.886 55.5227 16.4285 55.6358 16.9551 55.6423C17.4865 55.6364 17.98 55.544 18.4356 55.365C18.8835 55.1687 19.2812 54.8809 19.6285 54.5017C19.9757 54.1225 20.2531 53.6657 20.4604 53.1311C20.7015 52.5096 20.7882 51.8989 20.7205 51.2992C20.6576 50.6871 20.46 50.0721 20.1276 49.4542L23.1606 47.9393C23.6965 48.8807 23.9959 49.9154 24.0589 51.0434C24.1143 52.1541 23.9082 53.3124 23.4405 54.5182Z" fill="#2D1C2A"/>
<path d="M32.464 39.4022C31.722 40.2764 30.8998 41.0288 29.9973 41.6593C29.0934 42.2711 28.2539 42.6832 27.4789 42.8957L26.107 39.9998C26.8157 39.7829 27.5342 39.4515 28.2627 39.0053C28.9896 38.5403 29.6162 37.9978 30.1426 37.3777C30.4963 36.9609 30.7457 36.595 30.8906 36.28C31.0255 35.9563 31.0797 35.6863 31.0534 35.4702C31.0255 35.2351 30.9257 35.0436 30.7539 34.8958C30.5114 34.687 30.2245 34.6336 29.8932 34.7354C29.5619 34.8373 29.1998 35.027 28.8068 35.3045C28.4139 35.582 27.9864 35.9002 27.5245 36.259C27.0712 36.6077 26.5882 36.9397 26.0758 37.255C25.5719 37.5602 25.0578 37.795 24.5335 37.9594C23.9991 38.1152 23.4551 38.1483 22.9014 38.0588C22.3377 37.9606 21.7729 37.668 21.207 37.1809C20.5703 36.6329 20.141 35.9644 19.9189 35.1751C19.7055 34.3758 19.7399 33.4906 20.0219 32.5195C20.304 31.5485 20.8894 30.5394 21.778 29.4924C22.3734 28.791 23.0366 28.1744 23.7678 27.6427C24.4974 27.0921 25.2382 26.6829 25.99 26.4153L27.4289 29.2633C26.7246 29.5367 26.0954 29.8659 25.5412 30.251C24.977 30.6273 24.4964 31.0493 24.0995 31.5169C23.7458 31.9336 23.5065 32.3082 23.3818 32.6407C23.2469 32.9644 23.2028 33.243 23.2493 33.4766C23.2959 33.7102 23.4101 33.9053 23.592 34.0618C23.8245 34.2619 24.102 34.3161 24.4247 34.2244C24.7459 34.1138 25.103 33.9198 25.4959 33.6422C25.8873 33.3459 26.3097 33.0234 26.7631 32.6747C27.225 32.3159 27.7079 31.9839 28.2118 31.6787C28.7142 31.3547 29.2326 31.1148 29.767 30.959C30.2913 30.7946 30.831 30.7666 31.3861 30.8749C31.9397 30.9644 32.4944 31.2483 33.0503 31.7267C33.6667 32.2573 34.0867 32.9266 34.3102 33.7347C34.5322 34.5239 34.5022 35.404 34.2202 36.3751C33.9467 37.3359 33.3614 38.345 32.464 39.4022Z" fill="black"/>
<path d="M45.762 27.8259C44.7841 28.4247 43.7679 28.8827 42.7135 29.2001C41.6636 29.499 40.7372 29.6285 39.9343 29.5886L39.5335 26.4101C40.2748 26.4253 41.0611 26.3346 41.8926 26.1382C42.7285 25.9234 43.4933 25.6036 44.1869 25.1788C44.6531 24.8934 45.0042 24.6236 45.2403 24.3697C45.4694 24.1043 45.6052 23.8648 45.6475 23.6513C45.6944 23.4193 45.6592 23.2064 45.542 23.0123C45.3766 22.7384 45.1206 22.5981 44.7739 22.5915C44.4273 22.5849 44.024 22.6521 43.5639 22.7931C43.1039 22.934 42.5984 23.1029 42.0475 23.2995C41.5079 23.4892 40.9453 23.6539 40.3599 23.7935C39.7858 23.9262 39.224 23.9888 38.6744 23.9814C38.1179 23.9626 37.5905 23.8243 37.0922 23.5666C36.587 23.2975 36.1414 22.8433 35.7555 22.2041C35.3212 21.4851 35.1217 20.7161 35.1568 19.8973C35.2033 19.0715 35.512 18.2415 36.0829 17.4072C36.6538 16.5729 37.5249 15.7972 38.6961 15.0801C39.4807 14.5996 40.3034 14.2209 41.1641 13.944C42.0293 13.6487 42.861 13.4912 43.659 13.4716L44.1384 16.6254C43.3837 16.6654 42.683 16.7818 42.0363 16.9746C41.3826 17.1559 40.7942 17.4068 40.2712 17.7271C39.805 18.0125 39.4607 18.2937 39.2385 18.5705C39.0094 18.8359 38.8805 19.0867 38.8519 19.3231C38.8233 19.5595 38.8711 19.7804 38.9951 19.9859C39.1536 20.2484 39.4005 20.3864 39.7358 20.4C40.0756 20.3952 40.4755 20.3223 40.9355 20.1813C41.4 20.022 41.902 19.8475 42.4416 19.6577C42.9926 19.4611 43.5551 19.2964 44.1292 19.1638C44.7078 19.0127 45.2753 18.9466 45.8318 18.9654C46.3814 18.9729 46.9031 19.1146 47.3969 19.3907C47.8952 19.6484 48.3339 20.0911 48.713 20.7189C49.1334 21.4151 49.3238 22.1819 49.2842 23.0191C49.2491 23.8379 48.9461 24.6645 48.3752 25.4987C47.8156 26.326 46.9446 27.1017 45.762 27.8259Z" fill="#2D1C2A"/>
<path d="M70.8272 19.6051C69.8016 19.6507 68.8616 19.5189 68.0073 19.2098C67.1657 18.8868 66.4572 18.4044 65.8819 17.7626L67.9278 15.1093C68.3218 15.5723 68.7241 15.9214 69.1348 16.1568C69.5449 16.3788 69.9697 16.4801 70.4093 16.4606C71.5815 16.4085 72.1378 15.7031 72.0783 14.3444L71.815 8.33021L66.9798 8.54488L66.8459 5.48781L75.5973 5.09928L75.984 13.9308C76.0639 15.7557 75.6641 17.1415 74.7847 18.0881C73.9047 19.0214 72.5855 19.5271 70.8272 19.6051Z" fill="white"/>
<path d="M89.1761 21.356C88.0698 21.0544 87.0384 20.6281 86.082 20.0772C85.1419 19.5169 84.4091 18.9302 83.8835 18.3171L85.8958 15.8391C86.3966 16.3902 87.0047 16.9014 87.7202 17.3729C88.452 17.8349 89.2102 18.1729 89.9949 18.3868C90.5224 18.5306 90.959 18.6012 91.3048 18.5988C91.6541 18.5834 91.9203 18.5178 92.1033 18.4018C92.3027 18.2765 92.4318 18.1044 92.4906 17.8855C92.5737 17.5765 92.4979 17.2933 92.2634 17.0358C92.0288 16.7784 91.702 16.5304 91.2829 16.2918C90.8639 16.0532 90.3933 15.8006 89.8713 15.5339C89.3622 15.2707 88.8553 14.9736 88.3506 14.6426C87.8587 14.315 87.4258 13.9482 87.0517 13.5422C86.6811 13.1234 86.4166 12.6436 86.2582 12.1029C86.1032 11.5493 86.1227 10.912 86.3165 10.1909C86.5346 9.37974 86.9505 8.7054 87.5644 8.16794C88.1912 7.63398 89.0021 7.2884 89.997 7.13119C90.9919 6.97398 92.1518 7.07596 93.4768 7.43713C94.3644 7.67909 95.2051 8.01879 95.9987 8.45624C96.8087 8.88432 97.4962 9.38268 98.0613 9.95131L96.121 12.4697C95.5713 11.9467 95.0037 11.5156 94.4184 11.1764C93.8365 10.8243 93.2497 10.5676 92.658 10.4063C92.1305 10.2625 91.6905 10.2047 91.3377 10.233C90.9884 10.2483 90.7188 10.3268 90.5288 10.4685C90.3389 10.6102 90.2127 10.797 90.1504 11.0287C90.0708 11.3249 90.1419 11.5999 90.3635 11.8538C90.6015 12.0983 90.9301 12.3399 91.3492 12.5785C91.7846 12.8078 92.2569 13.054 92.766 13.3171C93.288 13.5838 93.7949 13.8809 94.2867 14.2085C94.7949 14.5266 95.2343 14.8952 95.6049 15.314C95.979 15.7201 96.2371 16.1981 96.3792 16.7481C96.5376 17.2888 96.5216 17.9133 96.3312 18.6215C96.1201 19.4069 95.6994 20.0731 95.0692 20.6199C94.4553 21.1574 93.6508 21.5047 92.6559 21.6619C91.6739 21.8226 90.5139 21.7206 89.1761 21.356Z" fill="white"/>
<path d="M113.613 35.3272C112.797 34.5216 112.107 33.6438 111.543 32.6939C110.998 31.7437 110.647 30.872 110.488 30.0788L113.45 28.8998C113.617 29.6267 113.897 30.3713 114.29 31.1338C114.702 31.8961 115.197 32.5629 115.776 33.1343C116.165 33.5183 116.51 33.794 116.813 33.9613C117.124 34.1191 117.388 34.1921 117.604 34.1805C117.839 34.1687 118.035 34.0816 118.193 33.9192C118.417 33.6899 118.489 33.4053 118.41 33.0655C118.332 32.7257 118.168 32.3489 117.92 31.935C117.672 31.5212 117.385 31.0699 117.061 30.5811C116.746 30.1017 116.45 29.5938 116.172 29.0572C115.904 28.5301 115.706 27.9975 115.578 27.4594C115.46 26.9119 115.464 26.3631 115.59 25.8131C115.725 25.2535 116.054 24.7062 116.574 24.1712C117.16 23.5693 117.852 23.184 118.649 23.0152C119.455 22.8558 120.33 22.9512 121.273 23.3013C122.216 23.6515 123.176 24.309 124.154 25.2738C124.808 25.9201 125.374 26.6288 125.852 27.3999C126.348 28.1708 126.703 28.9431 126.918 29.7167L123.999 30.9663C123.775 30.24 123.492 29.5852 123.148 29.0021C122.813 28.4093 122.427 27.8975 121.991 27.4666C121.602 27.0826 121.247 26.8165 120.926 26.6683C120.614 26.5105 120.341 26.447 120.107 26.4777C119.872 26.5085 119.671 26.6098 119.504 26.7818C119.29 27.0015 119.217 27.2766 119.286 27.6071C119.374 27.9373 119.542 28.3094 119.791 28.7232C120.058 29.1369 120.349 29.5834 120.664 30.0628C120.988 30.5515 121.284 31.0595 121.553 31.5867C121.84 32.1137 122.042 32.6509 122.161 33.1985C122.288 33.7366 122.279 34.2807 122.135 34.8309C122.008 35.3809 121.69 35.9186 121.178 36.4441C120.611 37.0269 119.919 37.4027 119.104 37.5717C118.307 37.7404 117.437 37.6498 116.494 37.2996C115.56 36.9588 114.6 36.3013 113.613 35.3272Z" fill="#2D1C2A"/>
<path d="M121.477 43.3609L136.738 42.7834L138.431 46.2969L128.542 58.0276L126.754 54.3159L135.49 44.6619L136.167 46.0673L123.23 47.0006L121.477 43.3609ZM125.388 45.2121L128.454 44.8493L131.423 51.0115L129.242 53.2121L125.388 45.2121Z" fill="black"/>
<path d="M130.085 69.1611C129.962 68.021 129.983 66.9055 130.147 65.8146C130.326 64.7354 130.605 63.8399 130.984 63.1278L134.026 64.1034C133.696 64.7699 133.441 65.5219 133.263 66.3595C133.1 67.2089 133.062 68.038 133.149 68.8466C133.208 69.3902 133.301 69.8226 133.43 70.1439C133.571 70.4637 133.73 70.6878 133.904 70.8163C134.094 70.9566 134.301 71.0144 134.526 70.9898C134.845 70.9551 135.081 70.7817 135.235 70.4698C135.389 70.1579 135.501 69.7635 135.57 69.2864C135.639 68.8094 135.703 68.2794 135.761 67.6963C135.82 67.1265 135.912 66.5465 136.036 65.9562C136.162 65.3791 136.345 64.8427 136.587 64.3469C136.842 63.8496 137.192 63.4291 137.638 63.0853C138.097 62.7402 138.698 62.527 139.44 62.446C140.275 62.3548 141.055 62.4977 141.779 62.8746C142.505 63.2648 143.123 63.8948 143.632 64.7646C144.142 65.6345 144.47 66.7521 144.617 68.1176C144.715 69.0323 144.706 69.9387 144.588 70.8368C144.485 71.7467 144.271 72.568 143.948 73.3008L140.895 72.4069C141.181 71.705 141.376 71.0199 141.478 70.3515C141.594 69.6816 141.619 69.0418 141.553 68.432C141.494 67.8885 141.388 67.4575 141.233 67.1391C141.091 66.8193 140.919 66.5966 140.718 66.471C140.517 66.3455 140.297 66.2957 140.058 66.3217C139.754 66.355 139.523 66.521 139.368 66.8197C139.227 67.1301 139.122 67.5239 139.052 68.0009C138.998 68.4897 138.941 69.019 138.881 69.5888C138.824 70.1719 138.732 70.7519 138.606 71.329C138.495 71.9178 138.312 72.4609 138.057 72.9581C137.816 73.454 137.465 73.8679 137.004 74.1998C136.559 74.5435 135.971 74.7552 135.242 74.8348C134.434 74.9231 133.66 74.7729 132.921 74.3841C132.196 74.0072 131.579 73.3838 131.07 72.514C130.562 71.6574 130.234 70.5398 130.085 69.1611Z" fill="black"/>
<path d="M129.307 86.809C129.544 85.6871 129.909 84.6335 130.403 83.6483C130.907 82.679 131.45 81.9155 132.031 81.358L134.618 83.2406C134.097 83.7701 133.623 84.4049 133.194 85.145C132.776 85.9009 132.483 86.6768 132.315 87.4726C132.202 88.0075 132.157 88.4478 132.18 88.7935C132.215 89.1419 132.296 89.4047 132.422 89.5816C132.559 89.7744 132.738 89.8945 132.96 89.9419C133.272 90.0088 133.55 89.9183 133.794 89.6703C134.037 89.4223 134.265 89.0825 134.479 88.651C134.692 88.2195 134.917 87.7357 135.152 87.1998C135.385 86.677 135.652 86.1546 135.953 85.6326C136.251 85.1237 136.592 84.6716 136.975 84.2763C137.371 83.8838 137.834 83.5942 138.364 83.4075C138.907 83.2236 139.543 83.2098 140.274 83.3659C141.095 83.5415 141.792 83.9222 142.363 84.508C142.932 85.1068 143.323 85.8995 143.538 86.8861C143.752 87.8728 143.717 89.038 143.434 90.3818C143.244 91.282 142.954 92.1403 142.564 92.9568C142.184 93.7891 141.727 94.5026 141.193 95.0974L138.57 93.2889C139.059 92.7119 139.456 92.1218 139.761 91.5188C140.078 90.9185 140.3 90.3183 140.426 89.7182C140.539 89.1833 140.571 88.7402 140.523 88.389C140.487 88.0405 140.393 87.775 140.241 87.5925C140.089 87.4099 139.895 87.2936 139.66 87.2434C139.361 87.1792 139.09 87.2647 138.85 87.4996C138.62 87.7504 138.398 88.0915 138.185 88.5231C137.981 88.9705 137.763 89.4556 137.53 89.9784C137.295 90.5143 137.028 91.0367 136.73 91.5457C136.442 92.0704 136.1 92.5291 135.704 92.9216C135.321 93.3169 134.859 93.5999 134.319 93.7707C133.789 93.9574 133.165 93.9741 132.448 93.8207C131.653 93.6507 130.964 93.2648 130.383 92.6633C129.811 92.0775 129.418 91.2913 129.204 90.3047C128.987 89.3311 129.021 88.1659 129.307 86.809Z" fill="#2D1C2A"/>
<path d="M115.557 113.715C116.306 112.9 117.127 112.263 118.022 111.802C118.926 111.351 119.851 111.092 120.798 111.027C121.736 110.972 122.658 111.102 123.564 111.417C124.479 111.742 125.326 112.268 126.107 112.995C126.887 113.722 127.468 114.528 127.85 115.413C128.242 116.307 128.442 117.231 128.451 118.187C128.46 119.143 128.271 120.088 127.884 121.021C127.498 121.973 126.921 122.867 126.154 123.701C125.261 124.673 124.301 125.392 123.276 125.858C122.25 126.323 121.205 126.525 120.14 126.462L120.177 123.052C120.882 123.053 121.517 122.934 122.081 122.694C122.646 122.473 123.159 122.113 123.619 121.612C124.025 121.17 124.327 120.704 124.524 120.214C124.721 119.723 124.806 119.228 124.777 118.727C124.758 118.235 124.636 117.748 124.41 117.264C124.185 116.8 123.849 116.358 123.4 115.94C122.971 115.54 122.513 115.24 122.025 115.042C121.529 114.852 121.032 114.763 120.534 114.773C120.046 114.791 119.566 114.909 119.095 115.126C118.625 115.362 118.191 115.696 117.794 116.128C117.397 116.56 117.077 117.046 116.835 117.586C116.602 118.134 116.463 118.779 116.416 119.519L112.88 119.258C113.002 118.278 113.307 117.296 113.796 116.311C114.284 115.327 114.871 114.461 115.557 113.715ZM115.629 117.036L119.491 120.636L117.123 123.212L112.88 119.258L115.629 117.036Z" fill="white"/>
<path d="M105.199 122.893L112.279 134.971L108.875 136.994L101.795 124.916L105.199 122.893Z" fill="white"/>
<path d="M91.9308 129.219L94.7973 139.694L98.9407 138.544L99.7695 141.573L87.6861 144.926L86.8573 141.897L90.9815 140.753L88.115 130.278L91.9308 129.219Z" fill="white"/>
<path d="M116.491 74.772C116.491 98.2782 97.5703 117.316 74.2528 117.316C50.9352 117.316 32.0148 98.2782 32.0148 74.772C32.0148 51.2659 50.9352 32.2283 74.2528 32.2283C97.5703 32.2283 116.491 51.2659 116.491 74.772Z" stroke="white" stroke-width="3"/>
</svg>
