<svg width="175" height="282" viewBox="0 0 175 282" fill="none" xmlns="http://www.w3.org/2000/svg">
<path d="M72.2185 166.947L68.4999 165.585L73.3127 152.438L77.0313 153.8L72.2185 166.947ZM82.1022 155.656L85.8209 157.018L81.0081 170.164L77.2894 168.803L82.1022 155.656ZM74.8914 158.831L80.4882 160.88L79.3606 163.96L73.7638 161.911L74.8914 158.831Z" fill="white"/>
<path d="M64.1772 146.385L57.2452 154.745L60.5553 157.49L58.551 159.907L48.8979 151.903L50.9022 149.485L54.1969 152.217L61.1289 143.858L64.1772 146.385Z" fill="white"/>
<path d="M53.5778 136.727L41.3699 143.58L39.7741 140.738L45.2363 131.02L46.0782 132.52L35.016 132.262L33.4202 129.419L45.6085 122.531L47.3903 125.705L40.0328 129.881L39.7293 129.341L47.9688 129.555L48.8304 131.089L44.7811 138.34L44.4091 137.677L51.7862 133.536L53.5778 136.727Z" fill="white"/>
<path d="M43.4729 114.795L29.619 116.812L29.0485 112.894L39.7952 111.329L38.8329 104.719L41.9401 104.266L43.4729 114.795Z" fill="white"/>
<path d="M46.4923 80.6462C46.0947 81.679 45.5641 82.5748 44.9004 83.3338C44.2291 84.0754 43.4641 84.6524 42.6053 85.0648C41.7513 85.4646 40.8442 85.6869 39.884 85.7316C38.9114 85.7715 37.9274 85.5999 36.9319 85.2167C35.9365 84.8334 35.0976 84.3033 34.4153 83.6263C33.7205 82.9445 33.1904 82.169 32.825 81.2996C32.4644 80.4179 32.29 79.4792 32.3018 78.4836C32.3059 77.4708 32.5068 76.4481 32.9044 75.4153C33.369 74.2083 33.9949 73.2134 34.782 72.4306C35.5739 71.6353 36.4902 71.0737 37.5309 70.7457L38.7533 73.9166C38.0927 74.148 37.5336 74.4685 37.0759 74.8781C36.6229 75.2752 36.2767 75.7849 36.0372 76.407C35.8312 76.9421 35.7291 77.4671 35.7309 77.9821C35.7326 78.4971 35.8392 78.9811 36.0506 79.4339C36.2544 79.8696 36.5506 80.2693 36.9391 80.6332C37.3324 80.9847 37.8091 81.2682 38.369 81.4837C38.929 81.6993 39.4727 81.8086 40.0001 81.8116C40.5324 81.8022 41.0264 81.7066 41.4821 81.5249C41.9301 81.3259 42.3275 81.036 42.6742 80.6551C43.0208 80.2742 43.2971 79.8162 43.5031 79.2812C43.7426 78.659 43.8275 78.0488 43.7578 77.4505C43.6929 76.8397 43.493 76.227 43.1582 75.6123L46.1913 74.0797C46.7309 75.0161 47.0341 76.0471 47.1007 77.1729C47.1597 78.2815 46.9569 79.4392 46.4923 80.6462Z" fill="#2D1C2A" fill-opacity="0.89"/>
<path d="M55.2138 65.9718C54.4823 66.8549 53.6686 67.6178 52.7725 68.2607C51.8747 68.8847 51.0386 69.3089 50.2642 69.5331L48.8447 66.6693C49.5525 66.4418 50.2685 66.1 50.9927 65.6437C51.7152 65.1687 52.3358 64.618 52.8546 63.9917C53.2033 63.5707 53.4481 63.202 53.5889 62.8858C53.7193 62.5611 53.7698 62.2912 53.7401 62.0762C53.7087 61.8424 53.6057 61.6532 53.4311 61.5086C53.1847 61.3045 52.896 61.2558 52.5652 61.3626C52.2343 61.4695 51.8738 61.6643 51.4837 61.9471C51.0936 62.23 50.6695 62.5539 50.2113 62.9188C49.7617 63.2736 49.2821 63.6121 48.7726 63.9346C48.2716 64.2468 47.7594 64.489 47.2358 64.6613C46.7019 64.825 46.1566 64.8668 45.5998 64.7865C45.0328 64.6977 44.4617 64.4151 43.8867 63.9388C43.2398 63.403 42.7991 62.7436 42.5646 61.9607C42.3387 61.1675 42.36 60.2849 42.6285 59.3127C42.8971 58.3405 43.4694 57.3256 44.3455 56.268C44.9323 55.5595 45.5886 54.9344 46.3142 54.3928C47.0381 53.8324 47.7752 53.4129 48.5256 53.1341L50.0115 55.9491C49.3089 56.2328 48.6826 56.571 48.1323 56.9636C47.5718 57.3476 47.0959 57.7758 46.7046 58.2482C46.3559 58.6692 46.1214 59.0463 46.0012 59.3795C45.8707 59.7043 45.8306 59.9827 45.8808 60.2147C45.931 60.4467 46.0485 60.6393 46.2333 60.7924C46.4695 60.988 46.7487 61.0375 47.0711 60.941C47.3917 60.8257 47.7471 60.6266 48.1372 60.3437C48.5255 60.0421 48.9445 59.714 49.3942 59.3593C49.8523 58.9943 50.3319 58.6557 50.8329 58.3435C51.3321 58.0125 51.8486 57.7652 52.3825 57.6014C52.9061 57.4292 53.4471 57.3926 54.0057 57.4916C54.5624 57.5719 55.1232 57.846 55.6879 58.3138C56.3143 58.8326 56.7456 59.4929 56.9819 60.2945C57.2164 61.0774 57.1993 61.955 56.9308 62.9271C56.6707 63.889 56.0984 64.9039 55.2138 65.9718Z" fill="#2D1C2A" fill-opacity="0.89"/>
<path d="M68.0247 54.5392C67.0604 55.1597 66.054 55.6409 65.0055 55.9826C63.961 56.3059 63.0358 56.4574 62.2298 56.4369L61.7429 53.2779C62.4864 53.2751 63.2722 53.1658 64.1005 52.95C64.9327 52.7157 65.6909 52.3784 66.3748 51.9383C66.8345 51.6425 67.1793 51.3652 67.4091 51.1063C67.6317 50.8362 67.7614 50.5942 67.7981 50.3803C67.8389 50.148 67.7979 49.9365 67.6753 49.7459C67.5021 49.4768 67.2417 49.3431 66.894 49.3449C66.5463 49.3466 66.1438 49.4233 65.6864 49.5749C65.229 49.7265 64.7268 49.907 64.1797 50.1164C63.6439 50.3185 63.0844 50.4962 62.5012 50.6495C61.9293 50.7955 61.3677 50.8715 60.8166 50.8773C60.2582 50.872 59.7258 50.7468 59.2193 50.5019C58.7057 50.2458 58.2469 49.8038 57.8428 49.1759C57.3883 48.4695 57.1676 47.7077 57.1809 46.8906C57.2053 46.0662 57.4926 45.2313 58.0425 44.3859C58.5925 43.5404 59.445 42.7462 60.5999 42.003C61.3735 41.5051 62.1881 41.1078 63.0436 40.811C63.903 40.4958 64.7325 40.3188 65.532 40.28L66.097 43.4125C65.3416 43.4705 64.6422 43.6034 63.999 43.8112C63.3486 44.0078 62.7655 44.272 62.2497 44.6039C61.79 44.8997 61.4525 45.1883 61.2371 45.4696C61.0145 45.7396 60.8921 45.9929 60.8697 46.2292C60.8474 46.4655 60.9012 46.6846 61.0311 46.8864C61.197 47.1443 61.4482 47.276 61.7847 47.2815C62.1252 47.2685 62.5241 47.1862 62.9815 47.0346C63.4428 46.8645 63.9414 46.6784 64.4773 46.4763C65.0244 46.267 65.5839 46.0893 66.1558 45.9432C66.7317 45.7787 67.2989 45.6992 67.8573 45.7045C68.4085 45.6987 68.9353 45.8274 69.4377 46.0908C69.9441 46.3357 70.3957 46.7665 70.7926 47.3832C71.2327 48.0671 71.4441 48.8269 71.4269 49.6625C71.4136 50.4796 71.132 51.3109 70.582 52.1563C70.0432 52.9946 69.1908 53.7888 68.0247 54.5392Z" fill="#2D1C2A" fill-opacity="0.89"/>
<path d="M92.2213 45.8525C91.1984 45.94 90.2537 45.8469 89.3872 45.5731C88.5328 45.2848 87.8049 44.8319 87.2034 44.2143L89.1373 41.4795C89.5502 41.9259 89.9667 42.2583 90.3869 42.4766C90.8059 42.6816 91.2346 42.7654 91.673 42.7279C92.842 42.6279 93.3686 41.9003 93.2527 40.5453L92.7396 34.5472L87.9172 34.9597L87.6563 31.9109L96.3845 31.1642L97.138 39.972C97.2937 41.792 96.9518 43.1929 96.1125 44.1747C95.272 45.1432 93.9749 45.7025 92.2213 45.8525Z" fill="white"/>
<path d="M103.84 44.8794L113.158 32.74L116.947 33.6631L119.657 48.7327L115.654 47.7576L113.806 34.8947L115.322 35.2639L107.765 45.8357L103.84 44.8794ZM107.768 43.0367L109.45 40.4411L116.095 42.0601L116.395 45.1385L107.768 43.0367Z" fill="white"/>
<path d="M128.354 53.7093L131.285 38.7704L134.823 41.1778L132.173 54.0336L130.09 52.6162L141.173 45.4977L144.414 47.7026L131.579 55.903L128.354 53.7093Z" fill="white"/>
<path d="M139.818 62.3298L154.819 59.3004L157.069 62.4859L149.211 75.6271L146.834 72.2619L153.892 61.3508L154.792 62.625L142.149 65.6296L139.818 62.3298ZM143.99 63.5213L146.964 62.6697L150.91 68.2566L149.113 70.7743L143.99 63.5213Z" fill="white"/>
<path d="M152.378 85.831C152.059 84.7297 151.885 83.6278 151.857 82.5253C151.845 81.432 151.965 80.502 152.214 79.7355L155.381 80.1711C155.171 80.8844 155.051 81.6687 155.022 82.5242C155.009 83.3887 155.115 84.2115 155.342 84.9927C155.494 85.5177 155.661 85.9274 155.844 86.2215C156.039 86.512 156.234 86.7054 156.428 86.8017C156.639 86.9071 156.854 86.9283 157.071 86.8651C157.379 86.7761 157.581 86.5647 157.679 86.231C157.776 85.8972 157.818 85.4896 157.803 85.008C157.789 84.5263 157.759 83.9935 157.715 83.4094C157.674 82.8381 157.664 82.2512 157.683 81.6486C157.707 81.0587 157.794 80.4989 157.946 79.969C158.111 79.4354 158.383 78.9609 158.762 78.5455C159.154 78.1264 159.709 77.813 160.426 77.6051C161.233 77.3712 162.026 77.3773 162.805 77.6234C163.588 77.8823 164.306 78.396 164.959 79.1646C165.612 79.9331 166.13 80.9769 166.513 82.2959C166.769 83.1796 166.917 84.0737 166.957 84.9783C167.014 85.892 166.946 86.7375 166.755 87.5148L163.592 87.1615C163.752 86.421 163.824 85.7128 163.809 85.0371C163.806 84.3576 163.72 83.7233 163.549 83.1342C163.397 82.6092 163.216 82.2033 163.008 81.9166C162.813 81.6261 162.605 81.4364 162.385 81.3475C162.165 81.2586 161.94 81.2476 161.709 81.3144C161.415 81.3998 161.217 81.6029 161.116 81.9238C161.031 82.2538 160.996 82.6596 161.01 83.1413C161.042 83.632 161.077 84.163 161.118 84.7342C161.163 85.3183 161.173 85.9053 161.15 86.4951C161.143 87.094 161.057 87.6603 160.892 88.1939C160.741 88.7237 160.467 89.1918 160.071 89.5981C159.692 90.0135 159.15 90.3233 158.445 90.5274C157.664 90.7539 156.876 90.7395 156.08 90.4843C155.3 90.2382 154.584 89.7309 153.931 88.9624C153.282 88.2066 152.764 87.1628 152.378 85.831Z" fill="white"/>
<path d="M154.56 104.869C154.606 103.763 154.823 102.745 155.209 101.814C155.608 100.896 156.148 100.105 156.83 99.44C157.512 98.7881 158.3 98.2876 159.196 97.9383C160.105 97.5897 161.092 97.4378 162.158 97.4828C163.223 97.5277 164.188 97.7619 165.051 98.1853C165.927 98.6093 166.677 99.1747 167.301 99.8817C167.925 100.602 168.39 101.436 168.697 102.383C169.017 103.344 169.153 104.377 169.107 105.483C169.052 106.775 168.777 107.918 168.281 108.911C167.785 109.918 167.096 110.743 166.215 111.386L164.043 108.772C164.595 108.342 165.023 107.859 165.326 107.325C165.628 106.804 165.793 106.21 165.821 105.544C165.845 104.971 165.774 104.441 165.608 103.954C165.442 103.466 165.186 103.042 164.841 102.68C164.509 102.333 164.1 102.049 163.616 101.828C163.131 101.621 162.588 101.504 161.989 101.479C161.39 101.454 160.839 101.524 160.339 101.69C159.837 101.869 159.4 102.117 159.026 102.435C158.665 102.767 158.381 103.169 158.175 103.64C157.968 104.112 157.852 104.634 157.828 105.207C157.8 105.873 157.915 106.479 158.172 107.023C158.429 107.581 158.814 108.098 159.328 108.573L156.943 110.995C156.133 110.28 155.516 109.4 155.093 108.355C154.683 107.323 154.505 106.161 154.56 104.869Z" fill="white"/>
<path d="M153.113 117.068L166.096 122.307L163.701 128.242C163.222 129.429 162.618 130.372 161.891 131.07C161.158 131.781 160.333 132.224 159.413 132.4C158.507 132.58 157.559 132.471 156.57 132.072C155.593 131.678 154.841 131.101 154.313 130.342C153.798 129.587 153.523 128.7 153.489 127.68C153.462 126.677 153.689 125.582 154.168 124.395L155.739 120.5L156.62 122.754L151.631 120.74L153.113 117.068ZM149.872 125.099L155.904 123.78L154.325 127.694L148.286 129.031L149.872 125.099ZM156.23 122.596L158.577 121.645L157.095 125.318C156.786 126.084 156.723 126.72 156.907 127.226C157.086 127.744 157.473 128.123 158.066 128.362C158.672 128.607 159.219 128.605 159.708 128.356C160.191 128.12 160.588 127.618 160.897 126.852L162.379 123.179L163.408 125.493L156.23 122.596Z" fill="white"/>
<path d="M144.483 134.383L155.572 142.93L153.155 146.066L142.066 137.52L144.483 134.383Z" fill="white"/>
<path d="M137.151 143.169L145.524 154.389L140.395 158.217C139.369 158.982 138.364 159.475 137.379 159.694C136.384 159.92 135.448 159.87 134.572 159.543C133.703 159.226 132.95 158.64 132.312 157.785C131.682 156.941 131.339 156.058 131.282 155.135C131.226 154.212 131.444 153.301 131.937 152.4C132.427 151.519 133.185 150.695 134.211 149.93L137.577 147.418L137.195 149.849L133.977 145.537L137.151 143.169ZM136.944 149.512L139.443 149.918L136.269 152.287C135.607 152.781 135.223 153.292 135.117 153.82C135.002 154.356 135.135 154.88 135.518 155.393C135.908 155.917 136.377 156.199 136.924 156.24C137.46 156.29 138.059 156.067 138.721 155.573L141.895 153.204L141.573 155.716L136.944 149.512Z" fill="white"/>
<path d="M118.119 154.547L121.502 164.867L125.588 163.527L126.566 166.511L114.65 170.418L113.672 167.434L117.739 166.1L114.356 155.781L118.119 154.547Z" fill="white"/>
<circle cx="99" cy="102" r="39.5" stroke="white" stroke-width="3"/>
<path d="M99.5 141.5V197.5M99.5 197.5L113 208V230.5M99.5 197.5L78.5 219V254.5M99.5 197.5V269.5" stroke="white" stroke-width="3"/>
<path d="M60.5006 101.074L12 99" stroke="white" stroke-width="3"/>
<path d="M88.5 64L72 8" stroke="white" stroke-width="3"/>
<circle cx="99.5" cy="274.5" r="7.5" fill="white"/>
<circle cx="113.5" cy="231.5" r="7.5" fill="white"/>
<circle cx="7.5" cy="98.5" r="7.5" fill="white"/>
<path d="M79 7.5C79 11.6421 75.6421 15 71.5 15C67.3579 15 64 11.6421 64 7.5C64 3.35786 67.3579 0 71.5 0C75.6421 0 79 3.35786 79 7.5Z" fill="white"/>
<circle cx="78" cy="254" r="6" fill="white"/>
</svg>
