<svg width="148" height="147" viewBox="0 0 148 147" fill="none" xmlns="http://www.w3.org/2000/svg">
<path d="M50.9738 138.452L47.1956 137.267L51.3882 123.909L55.1664 125.095L50.9738 138.452ZM60.3186 126.712L64.0969 127.898L59.9043 141.255L56.126 140.07L60.3186 126.712ZM53.2642 130.221L58.9506 132.005L57.9684 135.135L52.2819 133.35L53.2642 130.221Z" fill="white"/>
<path d="M42.0412 118.228L35.4119 126.83L38.8177 129.455L36.9009 131.942L26.9685 124.287L28.8853 121.8L32.2753 124.412L38.9047 115.811L42.0412 118.228Z" fill="white"/>
<path d="M31.1301 108.951L19.0883 116.092L17.4254 113.288L22.6555 103.443L23.5328 104.922L12.4676 104.927L10.8047 102.123L22.8262 94.9478L24.6829 98.0787L17.4265 102.428L17.1103 101.895L25.3525 101.913L26.2503 103.427L22.3742 110.772L21.9866 110.118L29.2633 105.803L31.1301 108.951Z" fill="white"/>
<path d="M20.5745 87.2645L6.7453 89.4445L6.12867 85.5328L16.8562 83.8418L15.816 77.2432L18.9177 76.7543L20.5745 87.2645Z" fill="white"/>
<path d="M23.4339 53.1729C23.0312 54.2037 22.4963 55.097 21.8289 55.8526C21.154 56.591 20.3862 57.1643 19.5254 57.5724C18.6694 57.9681 17.7613 58.186 16.8009 58.226C15.8281 58.2611 14.8449 58.0847 13.8514 57.6966C12.8578 57.3085 12.0215 56.7743 11.3425 56.094C10.651 55.4088 10.1247 54.6306 9.76359 53.7595C9.40728 52.876 9.23745 51.9365 9.25411 50.941C9.2632 49.9283 9.46906 48.9065 9.87169 47.8756C10.3422 46.6709 10.973 45.6791 11.7639 44.9002C12.5597 44.1088 13.4787 43.5516 14.521 43.2287L15.7279 46.4055C15.0662 46.6337 14.5055 46.9515 14.0458 47.3588C13.5909 47.7538 13.2422 48.2617 12.9997 48.8827C12.7911 49.4167 12.6864 49.9413 12.6856 50.4563C12.6849 50.9713 12.7891 51.4557 12.9983 51.9096C13.1999 52.3462 13.4941 52.7474 13.8809 53.1132C14.2725 53.4666 14.7478 53.7524 15.3066 53.9707C15.8655 54.189 16.4087 54.3009 16.9361 54.3066C17.4684 54.2998 17.9629 54.2066 18.4195 54.0271C18.8685 53.8303 19.2673 53.5423 19.6158 53.1631C19.9643 52.7839 20.2428 52.3273 20.4514 51.7933C20.694 51.1723 20.7819 50.5625 20.7151 49.9638C20.6532 49.3527 20.4563 48.7391 20.1244 48.1227L23.165 46.605C23.7 47.544 23.9981 48.5765 24.0593 49.7026C24.1129 50.8114 23.9044 51.9682 23.4339 53.1729Z" fill="#2D1C2A"/>
<path d="M32.2916 38.616C31.5466 39.4876 30.7212 40.2379 29.8153 40.8669C28.9079 41.477 28.0653 41.8882 27.2876 42.1004L25.9125 39.215C26.6238 38.9985 27.345 38.6678 28.0761 38.2228C28.8058 37.7589 29.4349 37.2179 29.9633 36.5996C30.3185 36.1841 30.5689 35.8193 30.7145 35.5052C30.85 35.1826 30.9046 34.9135 30.8782 34.698C30.8504 34.4638 30.7504 34.273 30.5781 34.1258C30.3348 33.9178 30.047 33.8647 29.7145 33.9664C29.382 34.0681 29.0185 34.2574 28.6241 34.5342C28.2297 34.8109 27.8006 35.1283 27.3369 35.4861C26.8818 35.8339 26.3971 36.165 25.8827 36.4795C25.3769 36.7839 24.861 37.0182 24.3348 37.1824C23.7984 37.3379 23.2525 37.3712 22.6971 37.2823C22.1315 37.1848 21.5649 36.8934 20.9973 36.4083C20.3587 35.8625 19.9283 35.1964 19.7059 34.41C19.4922 33.6135 19.5271 32.7312 19.8107 31.7633C20.0942 30.7954 20.6821 29.7895 21.5744 28.7455C22.1722 28.0461 22.838 27.4313 23.5719 26.901C24.3044 26.3518 25.0479 25.9437 25.8024 25.6765L27.2447 28.5141C26.5378 28.787 25.9063 29.1154 25.3501 29.4995C24.7837 29.8748 24.3012 30.2956 23.9027 30.7619C23.5476 31.1774 23.3073 31.5509 23.1819 31.8822C23.0464 32.2049 23.002 32.4827 23.0486 32.7154C23.0952 32.9482 23.2097 33.1426 23.3922 33.2985C23.6253 33.4977 23.9038 33.5516 24.2276 33.46C24.5499 33.3497 24.9083 33.1561 25.3027 32.8793C25.6957 32.5837 26.1197 32.2621 26.5748 31.9143C27.0385 31.5565 27.5232 31.2253 28.029 30.9209C28.5333 30.5977 29.0536 30.3584 29.5899 30.2029C30.1161 30.0387 30.6576 30.0105 31.2146 30.1182C31.77 30.207 32.3265 30.4897 32.884 30.9662C33.5022 31.4946 33.9233 32.1615 34.1471 32.9667C34.3695 33.7531 34.3389 34.6303 34.0554 35.5982C33.7805 36.5559 33.1926 37.5619 32.2916 38.616Z" fill="black"/>
<path d="M45.3101 27.4652C44.3304 28.0609 43.3121 28.5163 42.2552 28.8313C41.2028 29.1279 40.274 29.2557 39.4688 29.2148L39.0625 26.0444C39.8057 26.0606 40.5941 25.9713 41.4276 25.7766C42.2656 25.5635 43.032 25.2457 43.7269 24.8231C44.194 24.5391 44.5457 24.2706 44.782 24.0177C45.0114 23.7533 45.1472 23.5147 45.1894 23.3018C45.2361 23.0706 45.2005 22.8581 45.0827 22.6645C44.9165 22.391 44.6595 22.2508 44.3119 22.2437C43.9643 22.2366 43.5599 22.303 43.0989 22.443C42.6378 22.5829 42.1311 22.7505 41.5789 22.9459C41.0381 23.1343 40.4742 23.2977 39.8874 23.4361C39.3119 23.5676 38.7486 23.6292 38.1975 23.6211C37.6394 23.6015 37.1104 23.4629 36.6103 23.2051C36.1034 22.936 35.6559 22.4825 35.268 21.8445C34.8315 21.1268 34.6304 20.3596 34.6644 19.5431C34.7098 18.7196 35.0182 17.8923 35.5895 17.0611C36.1608 16.23 37.0332 15.4576 38.2066 14.7441C38.9927 14.2661 39.8171 13.8896 40.6799 13.6147C41.5471 13.3214 42.3808 13.1656 43.181 13.1471L43.6661 16.293C42.9095 16.3318 42.207 16.4468 41.5587 16.6382C40.9035 16.8181 40.3139 17.0675 39.7898 17.3861C39.3227 17.6701 38.9779 17.95 38.7555 18.2257C38.5261 18.4901 38.3972 18.7401 38.3689 18.9758C38.3406 19.2115 38.3887 19.4319 38.5134 19.6369C38.6728 19.8989 38.9206 20.037 39.2568 20.051C39.5975 20.0467 39.9984 19.9746 40.4594 19.8346C40.925 19.6764 41.4282 19.503 41.969 19.3146C42.5212 19.1193 43.0851 18.9558 43.6605 18.8244C44.2405 18.6746 44.8095 18.6095 45.3675 18.6291C45.9187 18.6372 46.442 18.7793 46.9376 19.0554C47.4376 19.3131 47.8781 19.7552 48.2591 20.3818C48.6817 21.0768 48.8738 21.8417 48.8353 22.6765C48.8012 23.4931 48.4985 24.3169 47.9272 25.1481C47.3673 25.9723 46.4949 26.7447 45.3101 27.4652Z" fill="#2D1C2A"/>
<path d="M69.7276 19.5934C68.7019 19.6386 67.7619 19.5066 66.9074 19.1972C66.0657 18.874 65.3571 18.3914 64.7816 17.7495L66.8267 15.0968C67.2208 15.5599 67.6233 15.9092 68.0341 16.1447C68.4442 16.3668 68.8691 16.4682 69.3087 16.4488C70.4809 16.3971 71.037 15.6919 70.9771 14.3333L70.712 8.31911L65.8767 8.53229L65.7419 5.47526L74.4934 5.08942L74.8828 13.9208C74.9632 15.7457 74.5639 17.1313 73.6847 18.0776C72.8049 19.0106 71.4859 19.5159 69.7276 19.5934Z" fill="white"/>
<path d="M87.6602 21.3109C86.5534 21.0113 85.5218 20.587 84.5653 20.038C83.6252 19.4796 82.8926 18.8946 82.3676 18.2828L84.3854 15.8039C84.8858 16.3537 85.4937 16.8636 86.2091 17.3335C86.9408 17.7941 87.6992 18.1306 88.4843 18.3431C89.012 18.486 89.4489 18.5559 89.795 18.5529C90.1447 18.537 90.4112 18.471 90.5945 18.3549C90.7943 18.2294 90.9238 18.0573 90.983 17.8385C91.0666 17.5296 90.9912 17.2467 90.7568 16.9899C90.5225 16.7331 90.1957 16.4858 89.7766 16.248C89.3575 16.0102 88.887 15.7585 88.3649 15.4929C87.8557 15.2307 87.3488 14.9347 86.8442 14.6047C86.3524 14.2782 85.9196 13.9124 85.5458 13.5073C85.1755 13.0894 84.9114 12.6104 84.7537 12.0704C84.5995 11.5176 84.6199 10.8808 84.815 10.1601C85.0345 9.34926 85.4518 8.67489 86.0671 8.13696C86.6952 7.60252 87.5073 7.25601 88.5034 7.09742C89.4994 6.93883 90.6602 7.03896 91.9859 7.3978C92.8739 7.63819 93.7148 7.97631 94.5085 8.41217C95.3185 8.83864 96.0059 9.33551 96.5706 9.90277L94.6248 12.4219C94.0754 11.9002 93.508 11.4703 92.9226 11.1323C92.3408 10.7814 91.7538 10.5258 91.1618 10.3656C90.6341 10.2227 90.1937 10.1657 89.8406 10.1944C89.491 10.2103 89.221 10.2891 89.0307 10.431C88.8403 10.5729 88.7138 10.7596 88.6511 10.9913C88.5709 11.2873 88.6416 11.562 88.8631 11.8153C89.101 12.0593 89.4295 12.3001 89.8486 12.5379C90.284 12.7663 90.7563 13.0116 91.2655 13.2737C91.7876 13.5393 92.2945 13.8354 92.7863 14.1619C93.2944 14.479 93.7336 14.8466 94.1039 15.2645C94.4778 15.6696 94.7353 16.1468 94.8767 16.6962C95.0344 17.2361 95.0175 17.8601 94.8259 18.5679C94.6134 19.353 94.1913 20.0192 93.5597 20.5665C92.9444 21.1044 92.1388 21.4527 91.1427 21.6113C90.1596 21.7733 88.9987 21.6732 87.6602 21.3109Z" fill="white"/>
<path d="M111.512 34.86C110.694 34.0572 110.001 33.1826 109.436 32.2359C108.889 31.2891 108.536 30.4204 108.377 29.63L111.35 28.4549C111.517 29.1792 111.798 29.9213 112.192 30.6811C112.605 31.4407 113.102 32.1052 113.683 32.6745C114.073 33.0572 114.42 33.3319 114.723 33.4986C115.036 33.6558 115.301 33.7286 115.518 33.717C115.753 33.7052 115.95 33.6184 116.109 33.4565C116.333 33.228 116.406 32.9444 116.327 32.6058C116.248 32.2671 116.084 31.8916 115.835 31.4793C115.586 31.0669 115.298 30.6172 114.973 30.1301C114.657 29.6524 114.36 29.1462 114.081 28.6116C113.812 28.0862 113.613 27.5555 113.485 27.0193C113.367 26.4737 113.371 25.9268 113.497 25.3787C113.633 24.821 113.962 24.2756 114.485 23.7424C115.073 23.1426 115.767 22.7585 116.567 22.5903C117.376 22.4314 118.254 22.5264 119.2 22.8752C120.146 23.2241 121.11 23.8792 122.091 24.8406C122.748 25.4847 123.316 26.1909 123.795 26.9593C124.293 27.7274 124.649 28.497 124.864 29.268L121.935 30.5135C121.711 29.7897 121.426 29.1372 121.081 28.5561C120.745 27.9654 120.358 27.4554 119.92 27.0261C119.53 26.6434 119.174 26.3782 118.852 26.2306C118.539 26.0734 118.265 26.0101 118.029 26.0407C117.794 26.0714 117.592 26.1724 117.424 26.3437C117.21 26.5627 117.137 26.8369 117.206 27.1662C117.294 27.4953 117.463 27.8661 117.712 28.2785C117.98 28.6906 118.272 29.1356 118.588 29.6133C118.914 30.1004 119.211 30.6065 119.48 31.1319C119.768 31.657 119.972 32.1924 120.09 32.7381C120.218 33.2742 120.209 33.8165 120.064 34.3648C119.937 34.9129 119.617 35.4488 119.104 35.9725C118.535 36.5533 117.841 36.9279 117.022 37.0963C116.222 37.2645 115.349 37.1742 114.403 36.8253C113.466 36.4858 112.503 35.8307 111.512 34.86Z" fill="#2D1C2A"/>
<path d="M119.113 42.4785L134.407 41.9281L136.109 45.437L126.219 57.1259L124.421 53.4191L133.159 43.8006L133.84 45.2041L120.877 46.1134L119.113 42.4785ZM123.036 44.3324L126.108 43.9756L129.094 50.1296L126.912 52.3218L123.036 44.3324Z" fill="black"/>
<path d="M127.581 67.7057C127.458 66.5657 127.478 65.4504 127.641 64.3598C127.819 63.281 128.098 62.3857 128.476 61.6741L131.52 62.6517C131.189 63.3179 130.936 64.0696 130.758 64.9069C130.596 65.7561 130.558 66.585 130.646 67.3936C130.705 67.9371 130.798 68.3695 130.927 68.6908C131.069 69.0107 131.228 69.2349 131.402 69.3635C131.592 69.5039 131.799 69.5618 132.025 69.5374C132.343 69.5029 132.579 69.3298 132.733 69.018C132.887 68.7063 132.998 68.312 133.067 67.8351C133.136 67.3582 133.2 66.8283 133.257 66.2454C133.316 65.6757 133.407 65.0958 133.531 64.5057C133.656 63.9288 133.84 63.3926 134.081 62.897C134.336 62.4 134.686 61.9799 135.131 61.6365C135.59 61.2917 136.191 61.079 136.933 60.9985C137.768 60.908 138.548 61.0514 139.273 61.4288C139.999 61.8194 140.617 62.4498 141.128 63.3199C141.638 64.19 141.967 65.3077 142.115 66.673C142.214 67.5877 142.205 68.4939 142.088 69.3918C141.985 70.3015 141.772 71.1225 141.45 71.8549L138.395 70.959C138.681 70.2574 138.875 69.5725 138.977 68.9043C139.092 68.2346 139.117 67.5949 139.051 66.9851C138.992 66.4417 138.885 66.0107 138.729 65.6922C138.587 65.3724 138.416 65.1496 138.214 65.0239C138.013 64.8982 137.793 64.8483 137.554 64.8741C137.249 64.9072 137.019 65.073 136.864 65.3715C136.723 65.6818 136.618 66.0754 136.549 66.5523C136.495 67.041 136.438 67.5701 136.38 68.1398C136.322 68.7227 136.231 69.3026 136.105 69.8795C135.995 70.4682 135.812 71.011 135.558 71.508C135.316 72.0036 134.966 72.4171 134.505 72.7487C134.06 73.0921 133.473 73.3033 132.743 73.3823C131.935 73.47 131.161 73.3192 130.421 72.93C129.696 72.5526 129.079 71.9289 128.569 71.0588C128.06 70.202 127.731 69.0843 127.581 67.7057Z" fill="black"/>
<path d="M126.771 84.8278C127.009 83.7062 127.376 82.6527 127.872 81.6675C128.377 80.698 128.921 79.9343 129.503 79.3763L132.089 81.2545C131.568 81.7844 131.092 82.4195 130.662 83.1597C130.243 83.9157 129.949 84.6915 129.78 85.4871C129.666 86.0218 129.621 86.4619 129.643 86.8074C129.678 87.1556 129.758 87.4181 129.884 87.5948C130.021 87.7873 130.2 87.9071 130.421 87.9542C130.734 88.0206 131.013 87.9298 131.256 87.6816C131.5 87.4334 131.729 87.0936 131.943 86.662C132.157 86.2304 132.383 85.7467 132.619 85.2108C132.853 84.6879 133.121 84.1655 133.422 83.6434C133.721 83.1344 134.062 82.6821 134.446 82.2865C134.843 81.8937 135.307 81.6037 135.837 81.4165C136.381 81.232 137.018 81.2173 137.748 81.3724C138.57 81.5469 139.266 81.9264 139.837 82.5111C140.406 83.1088 140.796 83.9006 141.009 84.8864C141.223 85.8722 141.187 87.0368 140.901 88.3801C140.71 89.2801 140.419 90.1383 140.028 90.9548C139.646 91.7871 139.188 92.5008 138.653 93.096L136.03 91.2919C136.521 90.7146 136.919 90.1244 137.224 89.5213C137.543 88.921 137.765 88.3208 137.893 87.7209C138.006 87.1861 138.039 86.7433 137.991 86.3923C137.956 86.044 137.862 85.7788 137.71 85.5966C137.558 85.4143 137.364 85.2983 137.13 85.2485C136.83 85.1848 136.559 85.2705 136.319 85.5056C136.088 85.7565 135.866 86.0978 135.651 86.5293C135.447 86.9767 135.228 87.4618 134.995 87.9847C134.758 88.5206 134.491 89.0431 134.192 89.5521C133.903 90.0769 133.56 90.5357 133.163 90.9285C132.78 91.3241 132.317 91.6076 131.777 91.779C131.246 91.9663 130.622 91.9837 129.905 91.8314C129.109 91.6625 128.421 91.2778 127.84 90.6773C127.268 90.0926 126.876 89.3074 126.663 88.3216C126.447 87.3488 126.483 86.1842 126.771 84.8278Z" fill="#2D1C2A"/>
<path d="M113.206 110.885C113.958 110.073 114.783 109.437 115.68 108.978C116.587 108.527 117.516 108.27 118.467 108.205C119.408 108.149 120.333 108.279 121.241 108.593C122.16 108.916 123.01 109.439 123.793 110.164C124.576 110.889 125.159 111.692 125.542 112.573C125.935 113.464 126.136 114.385 126.144 115.338C126.153 116.291 125.963 117.232 125.574 118.162C125.186 119.111 124.607 120.002 123.838 120.833C122.941 121.802 121.978 122.519 120.949 122.983C119.919 123.448 118.87 123.648 117.802 123.586L117.84 120.188C118.548 120.189 119.185 120.07 119.751 119.831C120.318 119.611 120.833 119.251 121.295 118.752C121.702 118.312 122.005 117.847 122.203 117.358C122.401 116.87 122.486 116.376 122.457 115.877C122.438 115.387 122.316 114.901 122.089 114.419C121.864 113.956 121.526 113.516 121.076 113.1C120.645 112.701 120.186 112.403 119.697 112.205C119.199 112.016 118.7 111.927 118.201 111.937C117.711 111.956 117.229 112.074 116.756 112.29C116.284 112.525 115.849 112.858 115.451 113.289C115.052 113.719 114.731 114.204 114.488 114.741C114.254 115.288 114.114 115.93 114.067 116.668L110.519 116.409C110.641 115.433 110.948 114.454 111.438 113.472C111.929 112.491 112.518 111.628 113.206 110.885ZM113.278 114.194L117.153 117.78L114.775 120.349L110.519 116.409L113.278 114.194Z" fill="white"/>
<path d="M103.19 119.635L110.306 131.691L106.896 133.704L99.7793 121.648L103.19 119.635Z" fill="white"/>
<path d="M90.1893 125.752L93.0743 136.222L97.2198 135.079L98.054 138.106L85.9646 141.438L85.1304 138.411L89.2566 137.274L86.3715 126.804L90.1893 125.752Z" fill="white"/>
<path d="M114.5 73C114.5 95.9198 95.9198 114.5 73 114.5C50.0802 114.5 31.5 95.9198 31.5 73C31.5 50.0802 50.0802 31.5 73 31.5C95.9198 31.5 114.5 50.0802 114.5 73Z" stroke="white" stroke-width="3"/>
</svg>
