<svg width="152" height="150" viewBox="0 0 152 150" fill="none" xmlns="http://www.w3.org/2000/svg">
<path d="M49.2185 140.947L45.4999 139.585L50.3127 126.438L54.0313 127.8L49.2185 140.947ZM59.1022 129.656L62.8209 131.018L58.0081 144.164L54.2894 142.803L59.1022 129.656ZM51.8914 132.831L57.4882 134.88L56.3606 137.96L50.7638 135.911L51.8914 132.831Z" fill="white"/>
<path d="M41.1772 120.385L34.2452 128.745L37.5553 131.49L35.551 133.907L25.8979 125.903L27.9022 123.485L31.1969 126.217L38.1289 117.858L41.1772 120.385Z" fill="white"/>
<path d="M30.5778 110.727L18.3699 117.58L16.7741 114.738L22.2363 105.02L23.0782 106.52L12.016 106.262L10.4202 103.419L22.6085 96.5311L24.3903 99.7052L17.0328 103.881L16.7293 103.341L24.9688 103.555L25.8304 105.089L21.7811 112.34L21.4091 111.677L28.7862 107.536L30.5778 110.727Z" fill="white"/>
<path d="M20.4729 88.7954L6.61896 90.8123L6.04847 86.8936L16.7952 85.3291L15.8329 78.7187L18.9401 78.2664L20.4729 88.7954Z" fill="white"/>
<path d="M23.4923 54.6462C23.0947 55.679 22.5641 56.5748 21.9004 57.3338C21.2291 58.0754 20.4641 58.6524 19.6053 59.0648C18.7513 59.4646 17.8442 59.6869 16.884 59.7316C15.9114 59.7715 14.9274 59.5999 13.9319 59.2167C12.9365 58.8334 12.0976 58.3033 11.4153 57.6263C10.7205 56.9445 10.1904 56.169 9.825 55.2996C9.46438 54.4179 9.28997 53.4792 9.30176 52.4836C9.3059 51.4708 9.50677 50.4481 9.90436 49.4153C10.369 48.2083 10.9949 47.2134 11.782 46.4306C12.5739 45.6353 13.4902 45.0737 14.5309 44.7457L15.7533 47.9166C15.0927 48.148 14.5336 48.4685 14.0759 48.8781C13.6229 49.2752 13.2767 49.7849 13.0372 50.407C12.8312 50.9421 12.7291 51.4671 12.7309 51.9821C12.7326 52.4971 12.8392 52.9811 13.0506 53.4339C13.2544 53.8696 13.5506 54.2693 13.9391 54.6332C14.3324 54.9847 14.8091 55.2682 15.369 55.4837C15.929 55.6993 16.4727 55.8086 17.0001 55.8116C17.5324 55.8022 18.0264 55.7066 18.4821 55.5249C18.9301 55.3259 19.3275 55.036 19.6742 54.6551C20.0208 54.2742 20.2971 53.8162 20.5031 53.2812C20.7426 52.659 20.8275 52.0488 20.7578 51.4505C20.6929 50.8397 20.493 50.227 20.1582 49.6123L23.1913 48.0797C23.7309 49.0161 24.0341 50.0471 24.1007 51.1729C24.1597 52.2815 23.9569 53.4392 23.4923 54.6462Z" fill="#2D1C2A" fill-opacity="0.89"/>
<path d="M32.2138 39.9718C31.4823 40.8549 30.6686 41.6178 29.7725 42.2607C28.8747 42.8847 28.0386 43.3089 27.2642 43.5331L25.8447 40.6693C26.5525 40.4418 27.2685 40.1 27.9927 39.6437C28.7152 39.1687 29.3358 38.618 29.8546 37.9917C30.2033 37.5707 30.4481 37.202 30.5889 36.8858C30.7193 36.5611 30.7698 36.2912 30.7401 36.0762C30.7087 35.8424 30.6057 35.6532 30.4311 35.5086C30.1847 35.3045 29.896 35.2558 29.5652 35.3626C29.2343 35.4695 28.8738 35.6643 28.4837 35.9471C28.0936 36.23 27.6695 36.5539 27.2113 36.9188C26.7617 37.2736 26.2821 37.6121 25.7726 37.9346C25.2716 38.2468 24.7594 38.489 24.2358 38.6613C23.7019 38.825 23.1566 38.8668 22.5998 38.7865C22.0328 38.6977 21.4617 38.4151 20.8867 37.9388C20.2398 37.403 19.7991 36.7436 19.5646 35.9607C19.3387 35.1675 19.36 34.2849 19.6285 33.3127C19.8971 32.3405 20.4694 31.3256 21.3455 30.268C21.9323 29.5595 22.5886 28.9344 23.3142 28.3928C24.0381 27.8324 24.7752 27.4129 25.5256 27.1341L27.0115 29.9491C26.3089 30.2328 25.6826 30.571 25.1323 30.9636C24.5718 31.3476 24.0959 31.7758 23.7046 32.2482C23.3559 32.6692 23.1214 33.0463 23.0012 33.3795C22.8707 33.7043 22.8306 33.9827 22.8808 34.2147C22.931 34.4467 23.0485 34.6393 23.2333 34.7924C23.4695 34.988 23.7487 35.0375 24.0711 34.941C24.3917 34.8257 24.7471 34.6266 25.1372 34.3437C25.5255 34.0421 25.9445 33.714 26.3942 33.3593C26.8523 32.9943 27.3319 32.6557 27.8329 32.3435C28.3321 32.0125 28.8486 31.7652 29.3825 31.6014C29.9061 31.4292 30.4471 31.3926 31.0057 31.4916C31.5624 31.5719 32.1232 31.846 32.6879 32.3138C33.3143 32.8326 33.7456 33.4929 33.9819 34.2945C34.2164 35.0774 34.1993 35.955 33.9308 36.9271C33.6707 37.889 33.0984 38.9039 32.2138 39.9718Z" fill="#2D1C2A" fill-opacity="0.89"/>
<path d="M45.0247 28.5392C44.0604 29.1597 43.054 29.6409 42.0055 29.9826C40.961 30.3059 40.0358 30.4574 39.2298 30.4369L38.7429 27.2779C39.4864 27.2751 40.2722 27.1658 41.1005 26.95C41.9327 26.7157 42.6909 26.3784 43.3748 25.9383C43.8345 25.6425 44.1793 25.3652 44.4091 25.1063C44.6317 24.8362 44.7614 24.5942 44.7981 24.3803C44.8389 24.148 44.7979 23.9365 44.6753 23.7459C44.5021 23.4768 44.2417 23.3431 43.894 23.3449C43.5463 23.3466 43.1438 23.4233 42.6864 23.5749C42.229 23.7265 41.7268 23.907 41.1797 24.1164C40.6439 24.3185 40.0844 24.4962 39.5012 24.6495C38.9293 24.7955 38.3677 24.8715 37.8166 24.8773C37.2582 24.872 36.7258 24.7468 36.2193 24.5019C35.7057 24.2458 35.2469 23.8038 34.8428 23.1759C34.3883 22.4695 34.1676 21.7077 34.1809 20.8906C34.2053 20.0662 34.4926 19.2313 35.0425 18.3859C35.5925 17.5404 36.445 16.7462 37.5999 16.003C38.3735 15.5051 39.1881 15.1078 40.0436 14.811C40.903 14.4958 41.7325 14.3188 42.532 14.28L43.097 17.4125C42.3416 17.4705 41.6422 17.6034 40.999 17.8112C40.3486 18.0078 39.7655 18.272 39.2497 18.6039C38.79 18.8997 38.4525 19.1883 38.2371 19.4696C38.0145 19.7396 37.8921 19.9929 37.8697 20.2292C37.8474 20.4655 37.9012 20.6846 38.0311 20.8864C38.197 21.1443 38.4482 21.276 38.7847 21.2815C39.1252 21.2685 39.5241 21.1862 39.9815 21.0346C40.4428 20.8645 40.9414 20.6784 41.4773 20.4763C42.0244 20.267 42.5839 20.0893 43.1558 19.9432C43.7317 19.7787 44.2989 19.6992 44.8573 19.7045C45.4085 19.6987 45.9353 19.8274 46.4377 20.0908C46.9441 20.3357 47.3957 20.7665 47.7926 21.3832C48.2327 22.0671 48.4441 22.8269 48.4269 23.6625C48.4136 24.4796 48.132 25.3109 47.582 26.1563C47.0432 26.9946 46.1908 27.7888 45.0247 28.5392Z" fill="#2D1C2A" fill-opacity="0.89"/>
<path d="M69.2213 19.8525C68.1984 19.94 67.2537 19.8469 66.3872 19.5731C65.5328 19.2848 64.8049 18.8319 64.2034 18.2143L66.1373 15.4795C66.5502 15.9259 66.9667 16.2583 67.3869 16.4766C67.8059 16.6816 68.2346 16.7654 68.673 16.7279C69.842 16.6279 70.3686 15.9003 70.2527 14.5453L69.7396 8.54718L64.9172 8.95973L64.6563 5.91087L73.3845 5.16418L74.138 13.972C74.2937 15.792 73.9518 17.1929 73.1125 18.1747C72.272 19.1432 70.9749 19.7025 69.2213 19.8525Z" fill="white"/>
<path d="M80.8399 18.8794L90.158 6.73998L93.9472 7.66307L96.6574 22.7327L92.6544 21.7576L90.8064 8.89468L92.3221 9.26392L84.7652 19.8357L80.8399 18.8794ZM84.7677 17.0367L86.4498 14.4411L93.0955 16.0601L93.3954 19.1385L84.7677 17.0367Z" fill="white"/>
<path d="M105.354 27.7093L108.285 12.7704L111.823 15.1778L109.173 28.0336L107.09 26.6162L118.173 19.4977L121.414 21.7026L108.579 29.903L105.354 27.7093Z" fill="white"/>
<path d="M116.818 36.3298L131.819 33.3004L134.069 36.4859L126.211 49.6271L123.834 46.2619L130.892 35.3508L131.792 36.625L119.149 39.6296L116.818 36.3298ZM120.99 37.5213L123.964 36.6697L127.91 42.2566L126.113 44.7743L120.99 37.5213Z" fill="white"/>
<path d="M129.378 59.831C129.059 58.7297 128.885 57.6278 128.857 56.5253C128.845 55.432 128.965 54.502 129.214 53.7355L132.381 54.1711C132.171 54.8844 132.051 55.6687 132.022 56.5242C132.009 57.3887 132.115 58.2115 132.342 58.9927C132.494 59.5177 132.661 59.9274 132.844 60.2215C133.039 60.512 133.234 60.7054 133.428 60.8017C133.639 60.9071 133.854 60.9283 134.071 60.8651C134.379 60.7761 134.581 60.5647 134.679 60.231C134.776 59.8972 134.818 59.4896 134.803 59.008C134.789 58.5263 134.759 57.9935 134.715 57.4094C134.674 56.8381 134.664 56.2512 134.683 55.6486C134.707 55.0587 134.794 54.4989 134.946 53.969C135.111 53.4354 135.383 52.9609 135.762 52.5455C136.154 52.1264 136.709 51.813 137.426 51.6051C138.233 51.3712 139.026 51.3773 139.805 51.6234C140.588 51.8823 141.306 52.396 141.959 53.1646C142.612 53.9331 143.13 54.9769 143.513 56.2959C143.769 57.1796 143.917 58.0737 143.957 58.9783C144.014 59.892 143.946 60.7375 143.755 61.5148L140.592 61.1615C140.752 60.421 140.824 59.7128 140.809 59.0371C140.806 58.3576 140.72 57.7233 140.549 57.1342C140.397 56.6092 140.216 56.2033 140.008 55.9166C139.813 55.6261 139.605 55.4364 139.385 55.3475C139.165 55.2586 138.94 55.2476 138.709 55.3144C138.415 55.3998 138.217 55.6029 138.116 55.9238C138.031 56.2538 137.996 56.6596 138.01 57.1413C138.042 57.632 138.077 58.163 138.118 58.7342C138.163 59.3183 138.173 59.9053 138.15 60.4951C138.143 61.094 138.057 61.6603 137.892 62.1939C137.741 62.7237 137.467 63.1918 137.071 63.5981C136.692 64.0135 136.15 64.3233 135.445 64.5274C134.664 64.7539 133.876 64.7395 133.08 64.4843C132.3 64.2382 131.584 63.7309 130.931 62.9624C130.282 62.2066 129.764 61.1628 129.378 59.831Z" fill="white"/>
<path d="M131.56 78.8691C131.606 77.7634 131.823 76.745 132.209 75.8138C132.608 74.8964 133.148 74.1052 133.83 73.44C134.512 72.7881 135.3 72.2876 136.196 71.9383C137.105 71.5897 138.092 71.4378 139.158 71.4828C140.223 71.5277 141.188 71.7619 142.051 72.1853C142.927 72.6093 143.677 73.1747 144.301 73.8817C144.925 74.6019 145.39 75.4356 145.697 76.3827C146.017 77.3437 146.153 78.377 146.107 79.4827C146.052 80.7749 145.777 81.9177 145.281 82.911C144.785 83.9176 144.096 84.7427 143.215 85.3861L141.043 82.7723C141.595 82.3418 142.023 81.8594 142.326 81.325C142.628 80.804 142.793 80.2104 142.821 79.5443C142.845 78.9715 142.774 78.4414 142.608 77.9539C142.442 77.4665 142.186 77.042 141.841 76.6805C141.509 76.3328 141.1 76.0487 140.616 75.8281C140.131 75.6208 139.588 75.5045 138.989 75.4792C138.39 75.4539 137.839 75.5241 137.339 75.6898C136.837 75.8689 136.4 76.1173 136.026 76.4352C135.665 76.7669 135.381 77.1687 135.175 77.6404C134.968 78.1121 134.852 78.6343 134.828 79.2072C134.8 79.8732 134.915 80.4786 135.172 81.0233C135.429 81.5813 135.814 82.0979 136.328 82.5734L133.943 84.995C133.133 84.2802 132.516 83.4001 132.093 82.3547C131.683 81.3232 131.505 80.1613 131.56 78.8691Z" fill="white"/>
<path d="M130.113 91.0681L143.096 96.3067L140.701 102.242C140.222 103.429 139.618 104.372 138.891 105.07C138.158 105.781 137.333 106.224 136.413 106.4C135.507 106.58 134.559 106.471 133.57 106.072C132.593 105.678 131.841 105.101 131.313 104.342C130.798 103.587 130.523 102.7 130.489 101.68C130.462 100.677 130.689 99.5822 131.168 98.3952L132.739 94.5003L133.62 96.7536L128.631 94.7404L130.113 91.0681ZM126.872 99.099L132.904 97.7802L131.325 101.694L125.286 103.031L126.872 99.099ZM133.23 96.5964L135.577 95.6453L134.095 99.3176C133.786 100.084 133.723 100.72 133.907 101.226C134.086 101.744 134.473 102.123 135.066 102.362C135.672 102.607 136.219 102.605 136.708 102.356C137.191 102.12 137.588 101.618 137.897 100.852L139.379 97.1795L140.408 99.4926L133.23 96.5964Z" fill="white"/>
<path d="M121.483 108.383L132.572 116.93L130.155 120.066L119.066 111.52L121.483 108.383Z" fill="white"/>
<path d="M114.151 117.169L122.524 128.389L117.395 132.217C116.369 132.982 115.364 133.475 114.379 133.694C113.384 133.92 112.448 133.87 111.572 133.543C110.703 133.226 109.95 132.64 109.312 131.785C108.682 130.941 108.339 130.058 108.282 129.135C108.226 128.212 108.444 127.301 108.937 126.4C109.427 125.519 110.185 124.695 111.211 123.93L114.577 121.418L114.195 123.849L110.977 119.537L114.151 117.169ZM113.944 123.512L116.443 123.918L113.269 126.287C112.607 126.781 112.223 127.292 112.117 127.82C112.002 128.356 112.135 128.88 112.518 129.393C112.908 129.917 113.377 130.199 113.924 130.24C114.46 130.29 115.059 130.067 115.721 129.573L118.895 127.204L118.573 129.716L113.944 123.512Z" fill="white"/>
<path d="M95.1189 128.547L98.502 138.867L102.588 137.527L103.566 140.511L91.6502 144.418L90.672 141.434L94.7391 140.1L91.3559 129.781L95.1189 128.547Z" fill="white"/>
<circle cx="76" cy="76" r="39.5" stroke="white" stroke-width="3"/>
</svg>
