<svg width="210" height="282" viewBox="0 0 210 282" fill="none" xmlns="http://www.w3.org/2000/svg">
<path d="M107.219 166.947L103.5 165.585L108.313 152.438L112.031 153.8L107.219 166.947ZM117.102 155.656L120.821 157.018L116.008 170.164L112.289 168.803L117.102 155.656ZM109.891 158.831L115.488 160.88L114.361 163.96L108.764 161.911L109.891 158.831Z" fill="white"/>
<path d="M99.1772 146.385L92.2452 154.745L95.5553 157.49L93.551 159.907L83.8979 151.903L85.9022 149.485L89.1969 152.217L96.1289 143.858L99.1772 146.385Z" fill="white"/>
<path d="M88.5778 136.727L76.3699 143.58L74.7741 140.738L80.2363 131.02L81.0782 132.52L70.016 132.262L68.4202 129.419L80.6085 122.531L82.3903 125.705L75.0328 129.881L74.7293 129.341L82.9688 129.555L83.8304 131.089L79.7811 138.34L79.4091 137.677L86.7862 133.536L88.5778 136.727Z" fill="white"/>
<path d="M78.4729 114.795L64.619 116.812L64.0485 112.894L74.7952 111.329L73.8329 104.719L76.9401 104.266L78.4729 114.795Z" fill="white"/>
<path d="M81.4923 80.6462C81.0947 81.679 80.5641 82.5748 79.9004 83.3338C79.2291 84.0754 78.4641 84.6524 77.6053 85.0648C76.7513 85.4646 75.8442 85.6869 74.884 85.7316C73.9114 85.7715 72.9274 85.5999 71.9319 85.2167C70.9365 84.8334 70.0976 84.3033 69.4153 83.6263C68.7205 82.9445 68.1904 82.169 67.825 81.2996C67.4644 80.4179 67.29 79.4792 67.3018 78.4836C67.3059 77.4708 67.5068 76.4481 67.9044 75.4153C68.369 74.2083 68.9949 73.2134 69.782 72.4306C70.5739 71.6353 71.4902 71.0737 72.5309 70.7457L73.7533 73.9166C73.0927 74.148 72.5336 74.4685 72.0759 74.8781C71.6229 75.2752 71.2767 75.7849 71.0372 76.407C70.8312 76.9421 70.7291 77.4671 70.7309 77.9821C70.7326 78.4971 70.8392 78.9811 71.0506 79.4339C71.2544 79.8696 71.5506 80.2693 71.9391 80.6332C72.3324 80.9847 72.8091 81.2682 73.369 81.4837C73.929 81.6993 74.4727 81.8086 75.0001 81.8116C75.5324 81.8022 76.0264 81.7066 76.4821 81.5249C76.9301 81.3259 77.3275 81.036 77.6742 80.6551C78.0208 80.2742 78.2971 79.8162 78.5031 79.2812C78.7426 78.659 78.8275 78.0488 78.7578 77.4505C78.6929 76.8397 78.493 76.227 78.1582 75.6123L81.1913 74.0797C81.7309 75.0161 82.0341 76.0471 82.1007 77.1729C82.1597 78.2815 81.9569 79.4392 81.4923 80.6462Z" fill="#2D1C2A" fill-opacity="0.89"/>
<path d="M90.2138 65.9718C89.4823 66.8549 88.6686 67.6178 87.7725 68.2607C86.8747 68.8847 86.0386 69.3089 85.2642 69.5331L83.8447 66.6693C84.5525 66.4418 85.2685 66.1 85.9927 65.6437C86.7152 65.1687 87.3358 64.618 87.8546 63.9917C88.2033 63.5707 88.4481 63.202 88.5889 62.8858C88.7193 62.5611 88.7698 62.2912 88.7401 62.0762C88.7087 61.8424 88.6057 61.6532 88.4311 61.5086C88.1847 61.3045 87.896 61.2558 87.5652 61.3626C87.2343 61.4695 86.8738 61.6643 86.4837 61.9471C86.0936 62.23 85.6695 62.5539 85.2113 62.9188C84.7617 63.2736 84.2821 63.6121 83.7726 63.9346C83.2716 64.2468 82.7594 64.489 82.2358 64.6613C81.7019 64.825 81.1566 64.8668 80.5998 64.7865C80.0328 64.6977 79.4617 64.4151 78.8867 63.9388C78.2398 63.403 77.7991 62.7436 77.5646 61.9607C77.3387 61.1675 77.36 60.2849 77.6285 59.3127C77.8971 58.3405 78.4694 57.3256 79.3455 56.268C79.9323 55.5595 80.5886 54.9344 81.3142 54.3928C82.0381 53.8324 82.7752 53.4129 83.5256 53.1341L85.0115 55.9491C84.3089 56.2328 83.6826 56.571 83.1323 56.9636C82.5718 57.3476 82.0959 57.7758 81.7046 58.2482C81.3559 58.6692 81.1214 59.0463 81.0012 59.3795C80.8707 59.7043 80.8306 59.9827 80.8808 60.2147C80.931 60.4467 81.0485 60.6393 81.2333 60.7924C81.4695 60.988 81.7487 61.0375 82.0711 60.941C82.3917 60.8257 82.7471 60.6266 83.1372 60.3437C83.5255 60.0421 83.9445 59.714 84.3942 59.3593C84.8523 58.9943 85.3319 58.6557 85.8329 58.3435C86.3321 58.0125 86.8486 57.7652 87.3825 57.6014C87.9061 57.4292 88.4471 57.3926 89.0057 57.4916C89.5624 57.5719 90.1232 57.846 90.6879 58.3138C91.3143 58.8326 91.7456 59.4929 91.9819 60.2945C92.2164 61.0774 92.1993 61.955 91.9308 62.9271C91.6707 63.889 91.0984 64.9039 90.2138 65.9718Z" fill="#2D1C2A" fill-opacity="0.89"/>
<path d="M103.025 54.5392C102.06 55.1597 101.054 55.6409 100.006 55.9826C98.961 56.3059 98.0358 56.4574 97.2298 56.4369L96.7429 53.2779C97.4864 53.2751 98.2722 53.1658 99.1005 52.95C99.9327 52.7157 100.691 52.3784 101.375 51.9383C101.835 51.6425 102.179 51.3652 102.409 51.1063C102.632 50.8362 102.761 50.5942 102.798 50.3803C102.839 50.148 102.798 49.9365 102.675 49.7459C102.502 49.4768 102.242 49.3431 101.894 49.3449C101.546 49.3466 101.144 49.4233 100.686 49.5749C100.229 49.7265 99.7268 49.907 99.1797 50.1164C98.6439 50.3185 98.0844 50.4962 97.5012 50.6495C96.9293 50.7955 96.3677 50.8715 95.8166 50.8773C95.2582 50.872 94.7258 50.7468 94.2193 50.5019C93.7057 50.2458 93.2469 49.8038 92.8428 49.1759C92.3883 48.4695 92.1676 47.7077 92.1809 46.8906C92.2053 46.0662 92.4926 45.2313 93.0425 44.3859C93.5925 43.5404 94.445 42.7462 95.5999 42.003C96.3735 41.5051 97.1881 41.1078 98.0436 40.811C98.903 40.4958 99.7325 40.3188 100.532 40.28L101.097 43.4125C100.342 43.4705 99.6422 43.6034 98.999 43.8112C98.3486 44.0078 97.7655 44.272 97.2497 44.6039C96.79 44.8997 96.4525 45.1883 96.2371 45.4696C96.0145 45.7396 95.8921 45.9929 95.8697 46.2292C95.8474 46.4655 95.9012 46.6846 96.0311 46.8864C96.197 47.1443 96.4482 47.276 96.7847 47.2815C97.1252 47.2685 97.5241 47.1862 97.9815 47.0346C98.4428 46.8645 98.9414 46.6784 99.4773 46.4763C100.024 46.267 100.584 46.0893 101.156 45.9432C101.732 45.7787 102.299 45.6992 102.857 45.7045C103.408 45.6987 103.935 45.8274 104.438 46.0908C104.944 46.3357 105.396 46.7665 105.793 47.3832C106.233 48.0671 106.444 48.8269 106.427 49.6625C106.414 50.4796 106.132 51.3109 105.582 52.1563C105.043 52.9946 104.191 53.7888 103.025 54.5392Z" fill="#2D1C2A" fill-opacity="0.89"/>
<path d="M127.221 45.8525C126.198 45.94 125.254 45.8469 124.387 45.5731C123.533 45.2848 122.805 44.8319 122.203 44.2143L124.137 41.4795C124.55 41.9259 124.967 42.2583 125.387 42.4766C125.806 42.6816 126.235 42.7654 126.673 42.7279C127.842 42.6279 128.369 41.9003 128.253 40.5453L127.74 34.5472L122.917 34.9597L122.656 31.9109L131.384 31.1642L132.138 39.972C132.294 41.792 131.952 43.1929 131.112 44.1747C130.272 45.1432 128.975 45.7025 127.221 45.8525Z" fill="white"/>
<path d="M138.84 44.8794L148.158 32.74L151.947 33.6631L154.657 48.7327L150.654 47.7576L148.806 34.8947L150.322 35.2639L142.765 45.8357L138.84 44.8794ZM142.768 43.0367L144.45 40.4411L151.095 42.0601L151.395 45.1385L142.768 43.0367Z" fill="white"/>
<path d="M163.354 53.7093L166.285 38.7704L169.823 41.1778L167.173 54.0336L165.09 52.6162L176.173 45.4977L179.414 47.7026L166.579 55.903L163.354 53.7093Z" fill="white"/>
<path d="M174.818 62.3298L189.819 59.3004L192.069 62.4859L184.211 75.6271L181.834 72.2619L188.892 61.3508L189.792 62.625L177.149 65.6296L174.818 62.3298ZM178.99 63.5213L181.964 62.6697L185.91 68.2566L184.113 70.7743L178.99 63.5213Z" fill="white"/>
<path d="M187.378 85.831C187.059 84.7297 186.885 83.6278 186.857 82.5253C186.845 81.432 186.965 80.502 187.214 79.7355L190.381 80.1711C190.171 80.8844 190.051 81.6687 190.022 82.5242C190.009 83.3887 190.115 84.2115 190.342 84.9927C190.494 85.5177 190.661 85.9274 190.844 86.2215C191.039 86.512 191.234 86.7054 191.428 86.8017C191.639 86.9071 191.854 86.9283 192.071 86.8651C192.379 86.7761 192.581 86.5647 192.679 86.231C192.776 85.8972 192.818 85.4896 192.803 85.008C192.789 84.5263 192.759 83.9935 192.715 83.4094C192.674 82.8381 192.664 82.2512 192.683 81.6486C192.707 81.0587 192.794 80.4989 192.946 79.969C193.111 79.4354 193.383 78.9609 193.762 78.5455C194.154 78.1264 194.709 77.813 195.426 77.6051C196.233 77.3712 197.026 77.3773 197.805 77.6234C198.588 77.8823 199.306 78.396 199.959 79.1646C200.612 79.9331 201.13 80.9769 201.513 82.2959C201.769 83.1796 201.917 84.0737 201.957 84.9783C202.014 85.892 201.946 86.7375 201.755 87.5148L198.592 87.1615C198.752 86.421 198.824 85.7128 198.809 85.0371C198.806 84.3576 198.72 83.7233 198.549 83.1342C198.397 82.6092 198.216 82.2033 198.008 81.9166C197.813 81.6261 197.605 81.4364 197.385 81.3475C197.165 81.2586 196.94 81.2476 196.709 81.3144C196.415 81.3998 196.217 81.6029 196.116 81.9238C196.031 82.2538 195.996 82.6596 196.01 83.1413C196.042 83.632 196.077 84.163 196.118 84.7342C196.163 85.3183 196.173 85.9053 196.15 86.4951C196.143 87.094 196.057 87.6603 195.892 88.1939C195.741 88.7237 195.467 89.1918 195.071 89.5981C194.692 90.0135 194.15 90.3233 193.445 90.5274C192.664 90.7539 191.876 90.7395 191.08 90.4843C190.3 90.2382 189.584 89.7309 188.931 88.9624C188.282 88.2066 187.764 87.1628 187.378 85.831Z" fill="white"/>
<path d="M189.56 104.869C189.606 103.763 189.823 102.745 190.209 101.814C190.608 100.896 191.148 100.105 191.83 99.44C192.512 98.7881 193.3 98.2876 194.196 97.9383C195.105 97.5897 196.092 97.4378 197.158 97.4828C198.223 97.5277 199.188 97.7619 200.051 98.1853C200.927 98.6093 201.677 99.1747 202.301 99.8817C202.925 100.602 203.39 101.436 203.697 102.383C204.017 103.344 204.153 104.377 204.107 105.483C204.052 106.775 203.777 107.918 203.281 108.911C202.785 109.918 202.096 110.743 201.215 111.386L199.043 108.772C199.595 108.342 200.023 107.859 200.326 107.325C200.628 106.804 200.793 106.21 200.821 105.544C200.845 104.971 200.774 104.441 200.608 103.954C200.442 103.466 200.186 103.042 199.841 102.68C199.509 102.333 199.1 102.049 198.616 101.828C198.131 101.621 197.588 101.504 196.989 101.479C196.39 101.454 195.839 101.524 195.339 101.69C194.837 101.869 194.4 102.117 194.026 102.435C193.665 102.767 193.381 103.169 193.175 103.64C192.968 104.112 192.852 104.634 192.828 105.207C192.8 105.873 192.915 106.479 193.172 107.023C193.429 107.581 193.814 108.098 194.328 108.573L191.943 110.995C191.133 110.28 190.516 109.4 190.093 108.355C189.683 107.323 189.505 106.161 189.56 104.869Z" fill="white"/>
<path d="M188.113 117.068L201.096 122.307L198.701 128.242C198.222 129.429 197.618 130.372 196.891 131.07C196.158 131.781 195.333 132.224 194.413 132.4C193.507 132.58 192.559 132.471 191.57 132.072C190.593 131.678 189.841 131.101 189.313 130.342C188.798 129.587 188.523 128.7 188.489 127.68C188.462 126.677 188.689 125.582 189.168 124.395L190.739 120.5L191.62 122.754L186.631 120.74L188.113 117.068ZM184.872 125.099L190.904 123.78L189.325 127.694L183.286 129.031L184.872 125.099ZM191.23 122.596L193.577 121.645L192.095 125.318C191.786 126.084 191.723 126.72 191.907 127.226C192.086 127.744 192.473 128.123 193.066 128.362C193.672 128.607 194.219 128.605 194.708 128.356C195.191 128.12 195.588 127.618 195.897 126.852L197.379 123.179L198.408 125.493L191.23 122.596Z" fill="white"/>
<path d="M179.483 134.383L190.572 142.93L188.155 146.066L177.066 137.52L179.483 134.383Z" fill="white"/>
<path d="M172.151 143.169L180.524 154.389L175.395 158.217C174.369 158.982 173.364 159.475 172.379 159.694C171.384 159.92 170.448 159.87 169.572 159.543C168.703 159.226 167.95 158.64 167.312 157.785C166.682 156.941 166.339 156.058 166.282 155.135C166.226 154.212 166.444 153.301 166.937 152.4C167.427 151.519 168.185 150.695 169.211 149.93L172.577 147.418L172.195 149.849L168.977 145.537L172.151 143.169ZM171.944 149.512L174.443 149.918L171.269 152.287C170.607 152.781 170.223 153.292 170.117 153.82C170.002 154.356 170.135 154.88 170.518 155.393C170.908 155.917 171.377 156.199 171.924 156.24C172.46 156.29 173.059 156.067 173.721 155.573L176.895 153.204L176.573 155.716L171.944 149.512Z" fill="white"/>
<path d="M153.119 154.547L156.502 164.867L160.588 163.527L161.566 166.511L149.65 170.418L148.672 167.434L152.739 166.1L149.356 155.781L153.119 154.547Z" fill="white"/>
<circle cx="134" cy="102" r="39.5" stroke="white" stroke-width="3"/>
<path d="M134.5 141.5V197.5M134.5 197.5L148 208V230.5M134.5 197.5L113.5 219V254.5M134.5 197.5V269.5" stroke="white" stroke-width="3"/>
<path d="M94.5 101.5H7.5" stroke="white" stroke-width="3"/>
<path d="M123.5 64L107 8" stroke="white" stroke-width="3"/>
<circle cx="134.5" cy="274.5" r="7.5" fill="white"/>
<circle cx="148.5" cy="231.5" r="7.5" fill="white"/>
<circle cx="7.5" cy="101.5" r="7.5" fill="white"/>
<path d="M114 7.5C114 11.6421 110.642 15 106.5 15C102.358 15 99 11.6421 99 7.5C99 3.35786 102.358 0 106.5 0C110.642 0 114 3.35786 114 7.5Z" fill="white"/>
<circle cx="113" cy="254" r="6" fill="white"/>
</svg>
